<svg width="30" height="17" viewBox="0 0 30 17" fill="none" xmlns="http://www.w3.org/2000/svg">
<path d="M8.89282 0.337954C9.34342 0.788559 9.34342 1.51913 8.89282 1.96974L3.93948 6.92308H28.8462C29.4834 6.92308 30 7.43967 30 8.07692C30 8.71417 29.4834 9.23077 28.8462 9.23077H3.93948L8.89282 14.1841C9.34342 14.6347 9.34342 15.3653 8.89282 15.8159C8.44221 16.2665 7.71164 16.2665 7.26103 15.8159L0.337954 8.89281C0.121566 8.67643 0 8.38294 0 8.07692C0 7.7709 0.121566 7.47742 0.337954 7.26103L7.26103 0.337954C7.71164 -0.112651 8.44221 -0.112651 8.89282 0.337954Z" fill="#A4CAD5"/>
</svg>
