<svg width="30" height="17" viewBox="0 0 30 17" fill="none" xmlns="http://www.w3.org/2000/svg">
<path d="M21.1072 0.337954C20.6566 0.788559 20.6566 1.51913 21.1072 1.96974L26.0605 6.92308H1.15385C0.516594 6.92308 0 7.43967 0 8.07692C0 8.71417 0.516594 9.23077 1.15385 9.23077H26.0605L21.1072 14.1841C20.6566 14.6347 20.6566 15.3653 21.1072 15.8159C21.5578 16.2665 22.2884 16.2665 22.739 15.8159L29.662 8.89281C29.8784 8.67643 30 8.38294 30 8.07692C30 7.7709 29.8784 7.47742 29.662 7.26103L22.739 0.337954C22.2884 -0.112651 21.5578 -0.112651 21.1072 0.337954Z" fill="#A4CAD5"/>
</svg>
